<?xml version="1.0" encoding="utf-8"?>
<!-- Generator: Adobe Illustrator 25.1.0, SVG Export Plug-In . SVG Version: 6.00 Build 0)  -->
<svg version="1.1" id="Layer_1" xmlns="http://www.w3.org/2000/svg" xmlns:xlink="http://www.w3.org/1999/xlink" x="0px" y="0px"
	 viewBox="0 0 210.9 211.8" style="enable-background:new 0 0 210.9 211.8;" xml:space="preserve">
<style type="text/css">
	.st0{fill:#317AFF;}
	.st1{fill:#FF512F;}
	.st2{fill:#001C32;}
	.st3{fill:#91919D;}
	.st4{fill:#AAAABE;}
	.st5{fill:#C8C8D4;}
	.st6{fill:#F0F0FA;}
	.st7{fill:#FAFAFF;}
</style>
<path class="st0" d="M60.1,16.5c-1.7-1.7-4.3-2.2-6.5-1.3c-2.2,0.9-3.7,3.1-3.7,5.5v37.8H6c-3.3,0-6,2.7-6,6v82.8c0,3.3,2.7,6,6,6
	h44v37.8c0,2.4,1.5,4.6,3.7,5.5c0.7,0.3,1.5,0.5,2.3,0.5c1.6,0,3.1-0.6,4.2-1.7l85.2-85.2c2.3-2.3,2.3-6.1,0-8.4L60.1,16.5z
	 M61.9,176.7v-29.4c0-3.3-2.7-6-6-6h-44V70.5h44c3.3,0,6-2.7,6-6V35.1l70.8,70.8L61.9,176.7z M205,0h-40.5c-3.3,0-6,2.7-6,6
	s2.7,6,6,6H199v187.9h-34.5c-3.3,0-6,2.7-6,6s2.7,6,6,6H205c3.3,0,6-2.7,6-6V6C210.9,2.7,208.3,0,205,0z"/>
</svg>
