<?xml version="1.0" encoding="utf-8"?>
<!-- Generator: Adobe Illustrator 25.1.0, SVG Export Plug-In . SVG Version: 6.00 Build 0)  -->
<svg version="1.1" id="Layer_1" xmlns="http://www.w3.org/2000/svg" xmlns:xlink="http://www.w3.org/1999/xlink" x="0px" y="0px"
	 viewBox="0 0 210.9 211.8" style="enable-background:new 0 0 210.9 211.8;" xml:space="preserve">
<style type="text/css">
	.st0{fill:#317AFF;}
	.st1{fill:#FF512F;}
	.st2{fill:#001C32;}
	.st3{fill:#91919D;}
	.st4{fill:#AAAABE;}
	.st5{fill:#C8C8D4;}
	.st6{fill:#F0F0FA;}
	.st7{fill:#FAFAFF;}
</style>
<g>
	<g>
		<path class="st0" d="M105.3,0C46.8,0-0.6,47.4-0.6,105.9c0,58.5,47.4,105.9,105.9,105.9s105.9-47.4,105.9-105.9
			C211.1,47.4,163.7,0,105.3,0z M125.2,108l-42.5,42.5c-0.6,0.6-1.3,0.9-2.1,0.9c-0.4,0-0.8-0.1-1.1-0.2c-1.1-0.5-1.9-1.6-1.9-2.8
			v-18.8H55.6c-1.7,0-3-1.3-3-3V85.2c0-1.7,1.3-3,3-3h21.9V63.4c0-1.2,0.7-2.3,1.9-2.8c1.1-0.5,2.4-0.2,3.3,0.7l42.5,42.5
			C126.3,104.9,126.3,106.8,125.2,108z M157,157.9c-0.6,0.6-1.3,0.9-2.1,0.9h-20.2c-1.7,0-3-1.3-3-3s1.3-3,3-3h17.2l0-93.7h-17.2
			c-1.7,0-3-1.3-3-3s1.3-3,3-3h20.2c1.7,0,3,1.3,3,3l0,99.7C157.9,156.5,157.6,157.3,157,157.9z M83.5,85.2c0,1.7-1.3,3-3,3H58.6
			v35.3h21.9c1.7,0,3,1.3,3,3v14.6l35.3-35.3L83.5,70.6V85.2z"/>
	</g>
</g>
</svg>
