<?xml version="1.0" encoding="utf-8"?>
<!-- Generator: Adobe Illustrator 25.1.0, SVG Export Plug-In . SVG Version: 6.00 Build 0)  -->
<svg version="1.1" id="Layer_1" xmlns="http://www.w3.org/2000/svg" xmlns:xlink="http://www.w3.org/1999/xlink" x="0px" y="0px"
	 viewBox="0 0 210.9 211.8" style="enable-background:new 0 0 210.9 211.8;" xml:space="preserve">
<style type="text/css">
	.st0{fill:#FAFAFF;}
	.st1{fill:#317AFF;}
	.st2{fill:#FF512F;}
	.st3{fill:#001C32;}
	.st4{fill:#91919D;}
	.st5{fill:#AAAABE;}
	.st6{fill:#C8C8D4;}
	.st7{fill:#F0F0FA;}
	.st8{fill:#FFFFFF;}
</style>
<path class="st0" d="M105.5,0C47,0-0.4,47.4-0.4,105.9c0,58.5,47.4,105.9,105.9,105.9s105.9-47.4,105.9-105.9
	C211.4,47.4,163.9,0,105.5,0z M124.3,106.9l-42.5,42.5c-0.3,0.3-0.7,0.4-1.1,0.4c-0.2,0-0.4,0-0.6-0.1c-0.6-0.2-0.9-0.8-0.9-1.4V128
	H55.8c-0.8,0-1.5-0.7-1.5-1.5V85.2c0-0.8,0.7-1.5,1.5-1.5h23.4V63.4c0-0.6,0.4-1.2,0.9-1.4c0.6-0.2,1.2-0.1,1.6,0.3l42.5,42.5
	C124.9,105.4,124.9,106.4,124.3,106.9z M157.6,158.2c-0.7,0.7-1.5,1-2.5,1h-20.2c-1.9,0-3.5-1.6-3.5-3.5s1.6-3.5,3.5-3.5h16.7
	l0-92.7h-16.7c-1.9,0-3.5-1.6-3.5-3.5s1.6-3.5,3.5-3.5h20.2c1.9,0,3.5,1.6,3.5,3.5l0,99.7C158.6,156.7,158.2,157.6,157.6,158.2z"/>
</svg>
