<?xml version="1.0" encoding="utf-8"?>
<!-- Generator: Adobe Illustrator 25.1.0, SVG Export Plug-In . SVG Version: 6.00 Build 0)  -->
<svg version="1.1" id="Layer_1" xmlns="http://www.w3.org/2000/svg" xmlns:xlink="http://www.w3.org/1999/xlink" x="0px" y="0px"
	 viewBox="0 0 210.9 211.8" style="enable-background:new 0 0 210.9 211.8;" xml:space="preserve">
<style type="text/css">
	.st0{fill:#FAFAFF;}
	.st1{fill:#317AFF;}
	.st2{fill:#FF512F;}
	.st3{fill:#001C32;}
	.st4{fill:#91919D;}
	.st5{fill:#AAAABE;}
	.st6{fill:#C8C8D4;}
	.st7{fill:#F0F0FA;}
	.st8{fill:#FFFFFF;}
</style>
<path class="st0" d="M115.4,85.2c0,1.7-1.3,3-3,3H90.5v35.3h21.9c1.7,0,3,1.3,3,3v14.6l35.3-35.3l-35.3-35.3V85.2z M105.3,0
	C46.8,0-0.6,47.4-0.6,105.9c0,58.5,47.4,105.9,105.9,105.9s105.9-47.4,105.9-105.9C211.1,47.4,163.7,0,105.3,0z M58.6,152.7h17.2
	c1.7,0,3,1.3,3,3s-1.3,3-3,3H55.6c-1.7,0-3-1.3-3-3l0-99.7c0-0.8,0.3-1.6,0.9-2.1c0.6-0.6,1.3-0.9,2.1-0.9h20.2c1.7,0,3,1.3,3,3
	s-1.3,3-3,3H58.6L58.6,152.7z M157,108l-42.5,42.5c-0.6,0.6-1.3,0.9-2.1,0.9c-0.4,0-0.8-0.1-1.1-0.2c-1.1-0.5-1.9-1.6-1.9-2.8v-18.8
	H87.5c-1.7,0-3-1.3-3-3V85.2c0-1.7,1.3-3,3-3h21.9V63.4c0-1.2,0.7-2.3,1.9-2.8c1.1-0.5,2.4-0.2,3.3,0.7l42.5,42.5
	C158.2,104.9,158.2,106.8,157,108z"/>
</svg>
