<?xml version="1.0" encoding="utf-8"?>
<!-- Generator: Adobe Illustrator 25.1.0, SVG Export Plug-In . SVG Version: 6.00 Build 0)  -->
<svg version="1.1" id="Layer_1" xmlns="http://www.w3.org/2000/svg" xmlns:xlink="http://www.w3.org/1999/xlink" x="0px" y="0px"
	 viewBox="0 0 210.9 211.8" style="enable-background:new 0 0 210.9 211.8;" xml:space="preserve">
<style type="text/css">
	.st0{fill:#FFFFFF;}
</style>
<path class="st0" d="M46.3,11.9c3.3,0,6-2.7,6-6s-2.7-6-6-6H5.8c-3.3,0-6,2.7-6,6v199.8c0,3.3,2.7,6,6,6h40.5c3.3,0,6-2.7,6-6
	s-2.7-6-6-6H11.7V11.9H46.3z M209,101.7l-85.2-85.2c-1.7-1.7-4.3-2.2-6.5-1.3c-2.2,0.9-3.7,3.1-3.7,5.5v37.8h-44c-3.3,0-6,2.7-6,6
	v82.8c0,3.3,2.7,6,6,6h44v37.8c0,2.4,1.5,4.6,3.7,5.5c0.7,0.3,1.5,0.5,2.3,0.5c1.6,0,3.1-0.6,4.2-1.7l85.2-85.2
	C211.3,107.8,211.3,104,209,101.7z M125.6,176.7v-29.4c0-3.3-2.7-6-6-6h-44V70.5h44c3.3,0,6-2.7,6-6V35.1l70.8,70.8L125.6,176.7z"/>
</svg>
