<svg xmlns="http://www.w3.org/2000/svg" width="36.83" height="36.83" viewBox="0 0 36.83 36.83"><defs><style>.a{fill:none;stroke:#317aff;stroke-miterlimit:10;}</style></defs><path class="a" d="M-3006.719,397.375a18.437,18.437,0,0,0-18.415,18.415,18.435,18.435,0,0,0,18.415,18.415A18.435,18.435,0,0,0-2988.3,415.79,18.437,18.437,0,0,0-3006.719,397.375Zm0,35.835a17.44,17.44,0,0,1-17.42-17.42,17.439,17.439,0,0,1,17.42-17.419,17.439,17.439,0,0,1,17.42,17.419A17.44,17.44,0,0,1-3006.719,433.21Zm-2.488-12.448a4.1,4.1,0,0,0-1.019-1.534,3.166,3.166,0,0,0-.626-.477l0,0,0,0h-.007a2.493,2.493,0,0,0-1.04.034,2.753,2.753,0,0,0-.97.462,4.107,4.107,0,0,0-.9.935,6.98,6.98,0,0,0-.74,1.362,6.511,6.511,0,0,1-.81,1.42,5.553,5.553,0,0,1-.8.862,3.733,3.733,0,0,1-.742.513.857.857,0,0,1-.4.127l-.025.092a12.148,12.148,0,0,0,1.278.392,9,9,0,0,0,1.189.211c.132.014.262.025.391.032s.254.011.378.011a5.565,5.565,0,0,0,1.28-.142,4.32,4.32,0,0,0,1.109-.423,4.3,4.3,0,0,0,1.544-1.477,7.188,7.188,0,0,0,.921-2.369l0-.013,0-.007Zm13.044-14.357a.08.08,0,0,0-.027-.017.1.1,0,0,0-.036-.006,9.3,9.3,0,0,0-2,1.232c-1.044.737-2.357,1.717-3.614,2.69-1.648,1.276-3.139,2.487-4.365,3.54a34.18,34.18,0,0,0-2.775,2.6,3.117,3.117,0,0,0-.321.411c-.092.138-.177.285-.279.462-.057.1-.118.2-.188.323s-.149.248-.242.395l-.012.019-.012.019.018.013.019.013a4.441,4.441,0,0,1,.716.644,4.455,4.455,0,0,1,.708,1.068l.011.022.011.024.023-.013.022-.013c.187-.107.352-.194.5-.27s.285-.14.411-.2c.179-.085.333-.158.478-.24a2.753,2.753,0,0,0,.425-.291A34.274,34.274,0,0,0-3004,416.15c1.1-1.187,2.371-2.635,3.714-4.24,1-1.19,2.027-2.465,2.81-3.485a9.838,9.838,0,0,0,1.329-1.96.09.09,0,0,0,0-.033A.088.088,0,0,0-2996.163,406.4Z" transform="translate(3025.134 -397.375)"/></svg>
