<svg xmlns="http://www.w3.org/2000/svg" width="36.83" height="36.83" viewBox="0 0 36.83 36.83"><defs><style>.a{fill:#317aff;}</style></defs><path class="a" d="M-3006.719,219.578a18.436,18.436,0,0,0-18.415,18.415,18.436,18.436,0,0,0,18.415,18.415,18.436,18.436,0,0,0,18.415-18.415A18.436,18.436,0,0,0-3006.719,219.578Zm0,35.835a17.44,17.44,0,0,1-17.42-17.42,17.44,17.44,0,0,1,17.42-17.42,17.44,17.44,0,0,1,17.42,17.42A17.44,17.44,0,0,1-3006.719,255.413Zm1.248-12.43V229.991h-2.5v12.992l-5.872-5.873-1.764,1.765,8.884,8.884,8.884-8.884-1.764-1.765Z" transform="translate(3025.134 -219.578)"/></svg>