<svg xmlns="http://www.w3.org/2000/svg" width="51" height="51" viewBox="0 0 51 51"><defs><style>.a{fill:#f0f0fa;}.b{fill:none;stroke:#f0f0fa;stroke-miterlimit:10;}</style></defs><g transform="translate(-180.5 -765)"><g transform="translate(144.166 -0.917)"><g transform="translate(50.335 776.917)"><path class="a" d="M260.686,1387.126a8.23,8.23,0,0,1-8.5,0c-3.941,2.05-6.819,6.865-7.247,12.625a1.412,1.412,0,0,0,1.438,1.491H266.5a1.411,1.411,0,0,0,1.437-1.491C267.506,1393.991,264.627,1389.176,260.686,1387.126Z" transform="translate(-244.936 -1372.242)"/><path class="a" d="M257.4,1370.064a6.891,6.891,0,0,0-2.04,13.407,6.531,6.531,0,0,0,4.079,0,6.89,6.89,0,0,0-2.039-13.407Z" transform="translate(-245.896 -1370.064)"/></g></g><circle class="b" cx="25" cy="25" r="25" transform="translate(181 765.5)"/></g></svg>